<?xml version="1.0" encoding="utf-8" ?>
<svg baseProfile="tiny" height="100%" version="1.2" width="100%" xmlns="http://www.w3.org/2000/svg" xmlns:ev="http://www.w3.org/2001/xml-events" xmlns:xlink="http://www.w3.org/1999/xlink"><defs /><g transform="translate(250.0,250.0)"><circle cx="0.0" cy="-0.0" fill="none" r="10.0" stroke="black" stroke-width="1" /><circle cx="15.0" cy="-0.0" fill="none" r="5.0" stroke="black" stroke-width="1" /><circle cx="11.67" cy="-9.43" fill="none" r="5.0" stroke="black" stroke-width="1" /><circle cx="1.0" cy="-19.97" fill="none" r="10.0" stroke="black" stroke-width="1" /><circle cx="-13.23" cy="-10.67" fill="none" r="7.0" stroke="black" stroke-width="1" /><circle cx="-15.87" cy="2.06" fill="none" r="6.0" stroke="black" stroke-width="1" /><circle cx="-9.97" cy="12.51" fill="none" r="6.0" stroke="black" stroke-width="1" /><circle cx="1.53" cy="15.93" fill="none" r="6.0" stroke="black" stroke-width="1" /><circle cx="17.49" cy="14.79" fill="none" r="10.0" stroke="black" stroke-width="1" /><circle cx="24.85" cy="1.72" fill="none" r="5.0" stroke="black" stroke-width="1" /><circle cx="26.18" cy="-13.22" fill="none" r="10.0" stroke="black" stroke-width="1" /><circle cx="17.52" cy="-31.25" fill="none" r="10.0" stroke="black" stroke-width="1" /><circle cx="-28.53" cy="-5.99" fill="none" r="9.0" stroke="black" stroke-width="1" /><circle cx="-25.35" cy="7.64" fill="none" r="5.0" stroke="black" stroke-width="1" /><circle cx="-22.15" cy="21.27" fill="none" r="9.0" stroke="black" stroke-width="1" /><circle cx="-6.34" cy="27.51" fill="none" r="8.0" stroke="black" stroke-width="1" /><circle cx="6.54" cy="25.72" fill="none" r="5.0" stroke="black" stroke-width="1" /><circle cx="15.72" cy="29.69" fill="none" r="5.0" stroke="black" stroke-width="1" /><circle cx="-13.76" cy="-22.66" fill="none" r="5.0" stroke="black" stroke-width="1" /><circle cx="-24.54" cy="-20.45" fill="none" r="6.0" stroke="black" stroke-width="1" /><circle cx="2.22" cy="-35.92" fill="none" r="6.0" stroke="black" stroke-width="1" /><circle cx="-12.76" cy="-36.62" fill="none" r="9.0" stroke="black" stroke-width="1" /><circle cx="29.72" cy="29.33" fill="none" r="9.0" stroke="black" stroke-width="1" /><circle cx="32.47" cy="15.6" fill="none" r="5.0" stroke="black" stroke-width="1" /><circle cx="38.78" cy="3.1" fill="none" r="9.0" stroke="black" stroke-width="1" /><circle cx="42.09" cy="-11.53" fill="none" r="6.0" stroke="black" stroke-width="1" /><circle cx="-40.29" cy="8.93" fill="none" r="10.0" stroke="black" stroke-width="1" /><circle cx="-39.54" cy="28.92" fill="none" r="10.0" stroke="black" stroke-width="1" /><circle cx="-31.67" cy="-34.77" fill="none" r="10.0" stroke="black" stroke-width="1" /><circle cx="5.53" cy="39.68" fill="none" r="9.0" stroke="black" stroke-width="1" /><circle cx="-17.76" cy="35.61" fill="none" r="6.0" stroke="black" stroke-width="1" /><circle cx="-41.48" cy="-18.5" fill="none" r="9.0" stroke="black" stroke-width="1" /><circle cx="-50.05" cy="-4.99" fill="none" r="7.0" stroke="black" stroke-width="1" /><circle cx="38.41" cy="-21.9" fill="none" r="5.0" stroke="black" stroke-width="1" /><circle cx="33.51" cy="-31.75" fill="none" r="6.0" stroke="black" stroke-width="1" /><circle cx="43.27" cy="20.83" fill="none" r="7.0" stroke="black" stroke-width="1" /><circle cx="28.67" cy="-42.73" fill="none" r="6.0" stroke="black" stroke-width="1" /><circle cx="50.28" cy="11.09" fill="none" r="5.0" stroke="black" stroke-width="1" /><circle cx="54.44" cy="-0.16" fill="none" r="7.0" stroke="black" stroke-width="1" /><circle cx="53.08" cy="-12.08" fill="none" r="5.0" stroke="black" stroke-width="1" /><circle cx="-28.28" cy="38.83" fill="none" r="5.0" stroke="black" stroke-width="1" /><circle cx="9.66" cy="-44.02" fill="none" r="5.0" stroke="black" stroke-width="1" /><circle cx="-59.27" cy="8.09" fill="none" r="9.0" stroke="black" stroke-width="1" /><circle cx="-8.37" cy="41.34" fill="none" r="5.0" stroke="black" stroke-width="1" /><circle cx="-0.29" cy="-42.97" fill="none" r="5.0" stroke="black" stroke-width="1" /><circle cx="-51.28" cy="19.59" fill="none" r="5.0" stroke="black" stroke-width="1" /><circle cx="21.21" cy="42.88" fill="none" r="7.0" stroke="black" stroke-width="1" /><circle cx="34.19" cy="43.65" fill="none" r="6.0" stroke="black" stroke-width="1" /><circle cx="48.71" cy="36.94" fill="none" r="10.0" stroke="black" stroke-width="1" /><circle cx="51.79" cy="-26.02" fill="none" r="9.0" stroke="black" stroke-width="1" /><circle cx="43.44" cy="-38.48" fill="none" r="6.0" stroke="black" stroke-width="1" /><circle cx="-47.47" cy="-32.25" fill="none" r="6.0" stroke="black" stroke-width="1" /><circle cx="-57.9" cy="-22.91" fill="none" r="8.0" stroke="black" stroke-width="1" /><circle cx="-62.21" cy="-9.59" fill="none" r="6.0" stroke="black" stroke-width="1" /><circle cx="61.23" cy="21.34" fill="none" r="10.0" stroke="black" stroke-width="1" /><circle cx="-55.52" cy="29.74" fill="none" r="6.0" stroke="black" stroke-width="1" /><circle cx="-73.47" cy="-1.26" fill="none" r="8.0" stroke="black" stroke-width="1" /><circle cx="-50.27" cy="39.4" fill="none" r="5.0" stroke="black" stroke-width="1" /><circle cx="-37.01" cy="43.71" fill="none" r="5.0" stroke="black" stroke-width="1" /><circle cx="64.31" cy="6.66" fill="none" r="5.0" stroke="black" stroke-width="1" /><circle cx="69.14" cy="-6.48" fill="none" r="9.0" stroke="black" stroke-width="1" /><circle cx="65.97" cy="-21.14" fill="none" r="6.0" stroke="black" stroke-width="1" /><circle cx="-67.71" cy="22.85" fill="none" r="8.0" stroke="black" stroke-width="1" /><circle cx="66.14" cy="-35.14" fill="none" r="8.0" stroke="black" stroke-width="1" /><circle cx="-76.92" cy="12.31" fill="none" r="6.0" stroke="black" stroke-width="1" /><circle cx="54.56" cy="-43.0" fill="none" r="6.0" stroke="black" stroke-width="1" /><circle cx="-57.84" cy="-35.91" fill="none" r="5.0" stroke="black" stroke-width="1" /><circle cx="-44.34" cy="-42.8" fill="none" r="5.0" stroke="black" stroke-width="1" /><circle cx="-70.47" cy="-32.81" fill="none" r="8.0" stroke="black" stroke-width="1" /><circle cx="-71.29" cy="-18.83" fill="none" r="6.0" stroke="black" stroke-width="1" /><circle cx="-82.88" cy="-12.94" fill="none" r="7.0" stroke="black" stroke-width="1" /><circle cx="-64.87" cy="35.54" fill="none" r="5.0" stroke="black" stroke-width="1" /><circle cx="72.85" cy="11.86" fill="none" r="5.0" stroke="black" stroke-width="1" /><circle cx="85.31" cy="3.5" fill="none" r="10.0" stroke="black" stroke-width="1" /><circle cx="63.69" cy="36.14" fill="none" r="5.0" stroke="black" stroke-width="1" /><circle cx="72.44" cy="31.3" fill="none" r="5.0" stroke="black" stroke-width="1" /><circle cx="79.68" cy="21.73" fill="none" r="7.0" stroke="black" stroke-width="1" /><circle cx="80.93" cy="-20.08" fill="none" r="9.0" stroke="black" stroke-width="1" /><circle cx="81.11" cy="-36.08" fill="none" r="7.0" stroke="black" stroke-width="1" /><circle cx="95.51" cy="-11.33" fill="none" r="8.0" stroke="black" stroke-width="1" /><circle cx="-82.67" cy="23.97" fill="none" r="7.0" stroke="black" stroke-width="1" /><circle cx="-75.28" cy="33.42" fill="none" r="5.0" stroke="black" stroke-width="1" /><circle cx="-59.25" cy="43.81" fill="none" r="5.0" stroke="black" stroke-width="1" /><circle cx="-71.77" cy="42.78" fill="none" r="5.0" stroke="black" stroke-width="1" /><circle cx="-89.36" cy="0.59" fill="none" r="8.0" stroke="black" stroke-width="1" /><circle cx="-95.07" cy="15.54" fill="none" r="8.0" stroke="black" stroke-width="1" /><circle cx="-82.67" cy="-25.94" fill="none" r="6.0" stroke="black" stroke-width="1" /><circle cx="96.59" cy="20.01" fill="none" r="10.0" stroke="black" stroke-width="1" /><circle cx="-88.85" cy="39.81" fill="none" r="10.0" stroke="black" stroke-width="1" /><circle cx="83.82" cy="35.1" fill="none" r="7.0" stroke="black" stroke-width="1" /><circle cx="95.82" cy="34.99" fill="none" r="5.0" stroke="black" stroke-width="1" /><circle cx="97.59" cy="-29.21" fill="none" r="10.0" stroke="black" stroke-width="1" /><circle cx="-93.4" cy="-20.57" fill="none" r="6.0" stroke="black" stroke-width="1" /><circle cx="-103.23" cy="-9.24" fill="none" r="9.0" stroke="black" stroke-width="1" /><circle cx="102.3" cy="4.0" fill="none" r="7.0" stroke="black" stroke-width="1" /><circle cx="110.05" cy="-7.66" fill="none" r="7.0" stroke="black" stroke-width="1" /><circle cx="-103.39" cy="29.2" fill="none" r="8.0" stroke="black" stroke-width="1" /><circle cx="-84.2" cy="-38.85" fill="none" r="7.0" stroke="black" stroke-width="1" /><circle cx="-93.74" cy="-31.56" fill="none" r="5.0" stroke="black" stroke-width="1" /><circle cx="91.44" cy="-43.98" fill="none" r="6.0" stroke="black" stroke-width="1" /><circle cx="-104.99" cy="5.66" fill="none" r="6.0" stroke="black" stroke-width="1" /><circle cx="-102.5" cy="-26.74" fill="none" r="5.0" stroke="black" stroke-width="1" /><circle cx="-115.74" cy="-22.18" fill="none" r="9.0" stroke="black" stroke-width="1" /><circle cx="112.69" cy="-21.41" fill="none" r="7.0" stroke="black" stroke-width="1" /><circle cx="72.89" cy="40.06" fill="none" r="5.0" stroke="black" stroke-width="1" /><circle cx="-108.05" cy="16.23" fill="none" r="5.0" stroke="black" stroke-width="1" /><circle cx="-63.78" cy="-43.96" fill="none" r="5.0" stroke="black" stroke-width="1" /><circle cx="-115.02" cy="23.4" fill="none" r="5.0" stroke="black" stroke-width="1" /><circle cx="-104.5" cy="43.16" fill="none" r="6.0" stroke="black" stroke-width="1" /><circle cx="106.54" cy="32.54" fill="none" r="6.0" stroke="black" stroke-width="1" /><circle cx="115.58" cy="20.57" fill="none" r="9.0" stroke="black" stroke-width="1" /><circle cx="116.78" cy="4.62" fill="none" r="7.0" stroke="black" stroke-width="1" /><circle cx="114.8" cy="-37.27" fill="none" r="9.0" stroke="black" stroke-width="1" /><circle cx="63.0" cy="41.51" fill="none" r="5.0" stroke="black" stroke-width="1" /><circle cx="-97.59" cy="-42.92" fill="none" r="7.0" stroke="black" stroke-width="1" /><circle cx="-110.4" cy="-37.26" fill="none" r="7.0" stroke="black" stroke-width="1" /><circle cx="-118.11" cy="-7.37" fill="none" r="6.0" stroke="black" stroke-width="1" /><circle cx="-120.84" cy="8.4" fill="none" r="10.0" stroke="black" stroke-width="1" /><circle cx="91.74" cy="44.12" fill="none" r="5.0" stroke="black" stroke-width="1" /><circle cx="-119.54" cy="37.7" fill="none" r="10.0" stroke="black" stroke-width="1" /><circle cx="-125.0" cy="22.81" fill="none" r="5.0" stroke="black" stroke-width="1" /><circle cx="81.76" cy="44.69" fill="none" r="5.0" stroke="black" stroke-width="1" /><circle cx="126.03" cy="-8.43" fill="none" r="9.0" stroke="black" stroke-width="1" /><circle cx="102.44" cy="-43.84" fill="none" r="5.0" stroke="black" stroke-width="1" /><circle cx="127.15" cy="-25.39" fill="none" r="8.0" stroke="black" stroke-width="1" /><circle cx="110.54" cy="-52.69" fill="none" r="7.0" stroke="black" stroke-width="1" /><circle cx="-112.35" cy="50.86" fill="none" r="5.0" stroke="black" stroke-width="1" /><circle cx="102.74" cy="43.92" fill="none" r="6.0" stroke="black" stroke-width="1" /><circle cx="118.71" cy="42.93" fill="none" r="10.0" stroke="black" stroke-width="1" /><circle cx="131.53" cy="28.91" fill="none" r="9.0" stroke="black" stroke-width="1" /><circle cx="129.68" cy="-39.16" fill="none" r="6.0" stroke="black" stroke-width="1" /><circle cx="-110.26" cy="-54.26" fill="none" r="10.0" stroke="black" stroke-width="1" /><circle cx="-120.67" cy="-43.46" fill="none" r="5.0" stroke="black" stroke-width="1" /><circle cx="-73.75" cy="-44.75" fill="none" r="5.0" stroke="black" stroke-width="1" /><circle cx="-131.38" cy="-32.96" fill="none" r="10.0" stroke="black" stroke-width="1" /><circle cx="126.44" cy="11.74" fill="none" r="5.0" stroke="black" stroke-width="1" /><circle cx="139.71" cy="4.75" fill="none" r="10.0" stroke="black" stroke-width="1" /><circle cx="-136.95" cy="30.1" fill="none" r="9.0" stroke="black" stroke-width="1" /><circle cx="143.76" cy="20.23" fill="none" r="6.0" stroke="black" stroke-width="1" /><circle cx="-129.14" cy="-18.13" fill="none" r="5.0" stroke="black" stroke-width="1" /><circle cx="-134.22" cy="-5.09" fill="none" r="9.0" stroke="black" stroke-width="1" /><circle cx="127.38" cy="-54.99" fill="none" r="10.0" stroke="black" stroke-width="1" /><circle cx="-142.6" cy="11.96" fill="none" r="10.0" stroke="black" stroke-width="1" /><circle cx="114.52" cy="-66.11" fill="none" r="7.0" stroke="black" stroke-width="1" /><circle cx="-126.23" cy="56.55" fill="none" r="10.0" stroke="black" stroke-width="1" /><circle cx="-111.86" cy="60.85" fill="none" r="5.0" stroke="black" stroke-width="1" /><circle cx="-142.74" cy="47.14" fill="none" r="9.0" stroke="black" stroke-width="1" /><circle cx="107.74" cy="55.92" fill="none" r="7.0" stroke="black" stroke-width="1" /><circle cx="119.57" cy="57.91" fill="none" r="5.0" stroke="black" stroke-width="1" /><line stroke="black" stroke-width="1" x1="200.0" x2="-200.0" y1="200.0" y2="200.0" /><line stroke="black" stroke-width="1" x1="-200.0" x2="-200.0" y1="200.0" y2="-200.0" /><line stroke="black" stroke-width="1" x1="-200.0" x2="200.0" y1="-200.0" y2="-200.0" /><line stroke="black" stroke-width="1" x1="200.0" x2="200.0" y1="-200.0" y2="200.0" /><line stroke="black" stroke-width="1" x1="100.0" x2="-100.0" y1="100.0" y2="100.0" /><line stroke="black" stroke-width="1" x1="-100.0" x2="-100.0" y1="100.0" y2="50.0" /><line stroke="black" stroke-width="1" x1="-100.0" x2="100.0" y1="50.0" y2="50.0" /><line stroke="black" stroke-width="1" x1="100.0" x2="100.0" y1="50.0" y2="100.0" /><line stroke="black" stroke-width="1" x1="100.0" x2="-100.0" y1="-100.0" y2="-100.0" /><line stroke="black" stroke-width="1" x1="-100.0" x2="-100.0" y1="-100.0" y2="-50.0" /><line stroke="black" stroke-width="1" x1="-100.0" x2="100.0" y1="-50.0" y2="-50.0" /><line stroke="black" stroke-width="1" x1="100.0" x2="100.0" y1="-50.0" y2="-100.0" /></g></svg>