<?xml version="1.0" encoding="utf-8" ?>
<svg baseProfile="tiny" height="100%" version="1.2" width="100%" xmlns="http://www.w3.org/2000/svg" xmlns:ev="http://www.w3.org/2001/xml-events" xmlns:xlink="http://www.w3.org/1999/xlink"><defs /><g transform="translate(250.0,250.0)"><circle cx="0.0" cy="-0.0" fill="none" r="10.0" stroke="black" stroke-width="1" /><circle cx="15.0" cy="-0.0" fill="none" r="5.0" stroke="black" stroke-width="1" /><circle cx="11.67" cy="-9.43" fill="none" r="5.0" stroke="black" stroke-width="1" /><circle cx="1.0" cy="-19.97" fill="none" r="10.0" stroke="black" stroke-width="1" /><circle cx="-13.23" cy="-10.67" fill="none" r="7.0" stroke="black" stroke-width="1" /><circle cx="-15.87" cy="2.06" fill="none" r="6.0" stroke="black" stroke-width="1" /><circle cx="-9.97" cy="12.51" fill="none" r="6.0" stroke="black" stroke-width="1" /><circle cx="1.53" cy="15.93" fill="none" r="6.0" stroke="black" stroke-width="1" /><circle cx="17.49" cy="14.79" fill="none" r="10.0" stroke="black" stroke-width="1" /><circle cx="24.85" cy="1.72" fill="none" r="5.0" stroke="black" stroke-width="1" /><circle cx="26.18" cy="-13.22" fill="none" r="10.0" stroke="black" stroke-width="1" /><circle cx="17.52" cy="-31.25" fill="none" r="10.0" stroke="black" stroke-width="1" /><circle cx="-28.53" cy="-5.99" fill="none" r="9.0" stroke="black" stroke-width="1" /><circle cx="-25.35" cy="7.64" fill="none" r="5.0" stroke="black" stroke-width="1" /><circle cx="-22.15" cy="21.27" fill="none" r="9.0" stroke="black" stroke-width="1" /><circle cx="-6.34" cy="27.51" fill="none" r="8.0" stroke="black" stroke-width="1" /><circle cx="6.54" cy="25.72" fill="none" r="5.0" stroke="black" stroke-width="1" /><circle cx="15.72" cy="29.69" fill="none" r="5.0" stroke="black" stroke-width="1" /><circle cx="-13.76" cy="-22.66" fill="none" r="5.0" stroke="black" stroke-width="1" /><circle cx="-24.54" cy="-20.45" fill="none" r="6.0" stroke="black" stroke-width="1" /><circle cx="2.22" cy="-35.92" fill="none" r="6.0" stroke="black" stroke-width="1" /><circle cx="-12.76" cy="-36.62" fill="none" r="9.0" stroke="black" stroke-width="1" /><circle cx="29.72" cy="29.33" fill="none" r="9.0" stroke="black" stroke-width="1" /><circle cx="32.47" cy="15.6" fill="none" r="5.0" stroke="black" stroke-width="1" /><circle cx="38.78" cy="3.1" fill="none" r="9.0" stroke="black" stroke-width="1" /><circle cx="42.09" cy="-11.53" fill="none" r="6.0" stroke="black" stroke-width="1" /><circle cx="-40.29" cy="8.93" fill="none" r="10.0" stroke="black" stroke-width="1" /><circle cx="-39.54" cy="28.92" fill="none" r="10.0" stroke="black" stroke-width="1" /><circle cx="-31.67" cy="-34.77" fill="none" r="10.0" stroke="black" stroke-width="1" /><circle cx="5.53" cy="39.68" fill="none" r="9.0" stroke="black" stroke-width="1" /><circle cx="-17.76" cy="35.61" fill="none" r="6.0" stroke="black" stroke-width="1" /><circle cx="-41.48" cy="-18.5" fill="none" r="9.0" stroke="black" stroke-width="1" /><circle cx="-50.05" cy="-4.99" fill="none" r="7.0" stroke="black" stroke-width="1" /><circle cx="38.41" cy="-21.9" fill="none" r="5.0" stroke="black" stroke-width="1" /><line stroke="black" stroke-width="1" x1="200.0" x2="-200.0" y1="200.0" y2="200.0" /><line stroke="black" stroke-width="1" x1="-200.0" x2="-200.0" y1="200.0" y2="-200.0" /><line stroke="black" stroke-width="1" x1="-200.0" x2="200.0" y1="-200.0" y2="-200.0" /><line stroke="black" stroke-width="1" x1="200.0" x2="200.0" y1="-200.0" y2="200.0" /><line stroke="black" stroke-width="1" x1="100.0" x2="-100.0" y1="100.0" y2="100.0" /><line stroke="black" stroke-width="1" x1="-100.0" x2="-100.0" y1="100.0" y2="50.0" /><line stroke="black" stroke-width="1" x1="-100.0" x2="100.0" y1="50.0" y2="50.0" /><line stroke="black" stroke-width="1" x1="100.0" x2="100.0" y1="50.0" y2="100.0" /><line stroke="black" stroke-width="1" x1="100.0" x2="-100.0" y1="-100.0" y2="-100.0" /><line stroke="black" stroke-width="1" x1="-100.0" x2="-100.0" y1="-100.0" y2="-50.0" /><line stroke="black" stroke-width="1" x1="-100.0" x2="100.0" y1="-50.0" y2="-50.0" /><line stroke="black" stroke-width="1" x1="100.0" x2="100.0" y1="-50.0" y2="-100.0" /></g></svg>