<?xml version="1.0" encoding="utf-8" ?>
<svg baseProfile="tiny" height="100%" version="1.2" width="100%" xmlns="http://www.w3.org/2000/svg" xmlns:ev="http://www.w3.org/2001/xml-events" xmlns:xlink="http://www.w3.org/1999/xlink"><defs /><g transform="translate(250.0,250.0)"><circle cx="0.0" cy="-0.0" fill="none" r="10.0" stroke="black" stroke-width="1" /><circle cx="15.0" cy="-0.0" fill="none" r="5.0" stroke="black" stroke-width="1" /><circle cx="11.67" cy="-9.43" fill="none" r="5.0" stroke="black" stroke-width="1" /><circle cx="1.0" cy="-19.97" fill="none" r="10.0" stroke="black" stroke-width="1" /><circle cx="-13.23" cy="-10.67" fill="none" r="7.0" stroke="black" stroke-width="1" /><circle cx="-15.87" cy="2.06" fill="none" r="6.0" stroke="black" stroke-width="1" /><circle cx="-9.97" cy="12.51" fill="none" r="6.0" stroke="black" stroke-width="1" /><circle cx="1.53" cy="15.93" fill="none" r="6.0" stroke="black" stroke-width="1" /><circle cx="17.49" cy="14.79" fill="none" r="10.0" stroke="black" stroke-width="1" /><circle cx="24.85" cy="1.72" fill="none" r="5.0" stroke="black" stroke-width="1" /><circle cx="26.18" cy="-13.22" fill="none" r="10.0" stroke="black" stroke-width="1" /><circle cx="17.52" cy="-31.25" fill="none" r="10.0" stroke="black" stroke-width="1" /><circle cx="-28.53" cy="-5.99" fill="none" r="9.0" stroke="black" stroke-width="1" /><circle cx="-25.35" cy="7.64" fill="none" r="5.0" stroke="black" stroke-width="1" /><circle cx="-22.15" cy="21.27" fill="none" r="9.0" stroke="black" stroke-width="1" /><circle cx="-6.34" cy="27.51" fill="none" r="8.0" stroke="black" stroke-width="1" /><circle cx="6.54" cy="25.72" fill="none" r="5.0" stroke="black" stroke-width="1" /><circle cx="15.72" cy="29.69" fill="none" r="5.0" stroke="black" stroke-width="1" /><circle cx="-13.76" cy="-22.66" fill="none" r="5.0" stroke="black" stroke-width="1" /><circle cx="-24.54" cy="-20.45" fill="none" r="6.0" stroke="black" stroke-width="1" /><circle cx="2.22" cy="-35.92" fill="none" r="6.0" stroke="black" stroke-width="1" /><circle cx="-12.76" cy="-36.62" fill="none" r="9.0" stroke="black" stroke-width="1" /><circle cx="29.72" cy="29.33" fill="none" r="9.0" stroke="black" stroke-width="1" /><circle cx="32.47" cy="15.6" fill="none" r="5.0" stroke="black" stroke-width="1" /><circle cx="38.78" cy="3.1" fill="none" r="9.0" stroke="black" stroke-width="1" /><circle cx="42.09" cy="-11.53" fill="none" r="6.0" stroke="black" stroke-width="1" /><circle cx="-40.29" cy="8.93" fill="none" r="10.0" stroke="black" stroke-width="1" /><circle cx="-39.54" cy="28.92" fill="none" r="10.0" stroke="black" stroke-width="1" /><circle cx="-31.67" cy="-34.77" fill="none" r="10.0" stroke="black" stroke-width="1" /><circle cx="5.53" cy="39.68" fill="none" r="9.0" stroke="black" stroke-width="1" /><circle cx="-17.76" cy="35.61" fill="none" r="6.0" stroke="black" stroke-width="1" /><circle cx="-41.48" cy="-18.5" fill="none" r="9.0" stroke="black" stroke-width="1" /><circle cx="-50.05" cy="-4.99" fill="none" r="7.0" stroke="black" stroke-width="1" /><circle cx="38.41" cy="-21.9" fill="none" r="5.0" stroke="black" stroke-width="1" /><circle cx="33.51" cy="-31.75" fill="none" r="6.0" stroke="black" stroke-width="1" /><circle cx="43.27" cy="20.83" fill="none" r="7.0" stroke="black" stroke-width="1" /><circle cx="51.62" cy="10.86" fill="none" r="6.0" stroke="black" stroke-width="1" /><circle cx="53.97" cy="-1.93" fill="none" r="7.0" stroke="black" stroke-width="1" /><circle cx="52.84" cy="-13.88" fill="none" r="5.0" stroke="black" stroke-width="1" /><circle cx="-54.99" cy="5.95" fill="none" r="5.0" stroke="black" stroke-width="1" /><circle cx="-55.24" cy="18.95" fill="none" r="8.0" stroke="black" stroke-width="1" /><circle cx="-54.24" cy="31.91" fill="none" r="5.0" stroke="black" stroke-width="1" /><circle cx="49.86" cy="-25.5" fill="none" r="7.0" stroke="black" stroke-width="1" /><circle cx="44.63" cy="-38.49" fill="none" r="7.0" stroke="black" stroke-width="1" /><circle cx="-50.65" cy="-33.99" fill="none" r="9.0" stroke="black" stroke-width="1" /><circle cx="-57.45" cy="-19.51" fill="none" r="7.0" stroke="black" stroke-width="1" /><circle cx="-61.6" cy="-8.25" fill="none" r="5.0" stroke="black" stroke-width="1" /><circle cx="46.2" cy="36.56" fill="none" r="9.0" stroke="black" stroke-width="1" /><circle cx="54.43" cy="25.24" fill="none" r="5.0" stroke="black" stroke-width="1" /><circle cx="64.3" cy="16.78" fill="none" r="8.0" stroke="black" stroke-width="1" /><circle cx="-49.09" cy="40.48" fill="none" r="5.0" stroke="black" stroke-width="1" /><circle cx="-66.54" cy="2.69" fill="none" r="7.0" stroke="black" stroke-width="1" /><circle cx="70.86" cy="0.02" fill="none" r="10.0" stroke="black" stroke-width="1" /><circle cx="66.1" cy="-18.37" fill="none" r="9.0" stroke="black" stroke-width="1" /><circle cx="61.26" cy="-33.62" fill="none" r="7.0" stroke="black" stroke-width="1" /><circle cx="-72.19" cy="17.66" fill="none" r="9.0" stroke="black" stroke-width="1" /><circle cx="-68.58" cy="36.31" fill="none" r="10.0" stroke="black" stroke-width="1" /><circle cx="33.65" cy="42.77" fill="none" r="5.0" stroke="black" stroke-width="1" /><circle cx="23.68" cy="41.96" fill="none" r="5.0" stroke="black" stroke-width="1" /><circle cx="59.89" cy="33.62" fill="none" r="5.0" stroke="black" stroke-width="1" /><circle cx="70.1" cy="29.52" fill="none" r="6.0" stroke="black" stroke-width="1" /><circle cx="-63.94" cy="-29.6" fill="none" r="5.0" stroke="black" stroke-width="1" /><circle cx="-72.45" cy="-19.77" fill="none" r="8.0" stroke="black" stroke-width="1" /><circle cx="-77.73" cy="-5.73" fill="none" r="7.0" stroke="black" stroke-width="1" /><circle cx="78.95" cy="20.0" fill="none" r="7.0" stroke="black" stroke-width="1" /><circle cx="84.57" cy="8.28" fill="none" r="6.0" stroke="black" stroke-width="1" /><circle cx="-83.95" cy="6.81" fill="none" r="7.0" stroke="black" stroke-width="1" /><circle cx="81.31" cy="-13.39" fill="none" r="7.0" stroke="black" stroke-width="1" /><circle cx="78.91" cy="-26.17" fill="none" r="6.0" stroke="black" stroke-width="1" /><circle cx="95.24" cy="-3.64" fill="none" r="10.0" stroke="black" stroke-width="1" /><circle cx="-90.57" cy="22.47" fill="none" r="10.0" stroke="black" stroke-width="1" /><circle cx="-83.57" cy="35.74" fill="none" r="5.0" stroke="black" stroke-width="1" /><circle cx="-76.21" cy="-36.35" fill="none" r="9.0" stroke="black" stroke-width="1" /><circle cx="-90.09" cy="-23.37" fill="none" r="10.0" stroke="black" stroke-width="1" /><circle cx="-90.62" cy="-7.38" fill="none" r="6.0" stroke="black" stroke-width="1" /><circle cx="-96.42" cy="3.13" fill="none" r="6.0" stroke="black" stroke-width="1" /><circle cx="81.67" cy="32.71" fill="none" r="6.0" stroke="black" stroke-width="1" /><circle cx="93.18" cy="24.74" fill="none" r="8.0" stroke="black" stroke-width="1" /><circle cx="103.38" cy="12.41" fill="none" r="8.0" stroke="black" stroke-width="1" /><circle cx="93.35" cy="-20.53" fill="none" r="7.0" stroke="black" stroke-width="1" /><circle cx="90.43" cy="-37.28" fill="none" r="10.0" stroke="black" stroke-width="1" /><circle cx="-107.3" cy="13.46" fill="none" r="9.0" stroke="black" stroke-width="1" /><circle cx="-62.72" cy="-42.9" fill="none" r="6.0" stroke="black" stroke-width="1" /><circle cx="73.43" cy="40.0" fill="none" r="5.0" stroke="black" stroke-width="1" /><circle cx="82.74" cy="43.66" fill="none" r="5.0" stroke="black" stroke-width="1" /><circle cx="94.07" cy="39.71" fill="none" r="7.0" stroke="black" stroke-width="1" /><circle cx="-95.97" cy="39.64" fill="none" r="8.0" stroke="black" stroke-width="1" /><circle cx="-100.38" cy="-12.46" fill="none" r="5.0" stroke="black" stroke-width="1" /><circle cx="-106.53" cy="-3.34" fill="none" r="6.0" stroke="black" stroke-width="1" /><circle cx="-112.18" cy="31.82" fill="none" r="10.0" stroke="black" stroke-width="1" /><circle cx="110.7" cy="0.48" fill="none" r="6.0" stroke="black" stroke-width="1" /><circle cx="111.34" cy="-15.51" fill="none" r="10.0" stroke="black" stroke-width="1" /><circle cx="107.96" cy="-33.19" fill="none" r="8.0" stroke="black" stroke-width="1" /><circle cx="107.2" cy="32.45" fill="none" r="8.0" stroke="black" stroke-width="1" /><circle cx="119.86" cy="19.65" fill="none" r="10.0" stroke="black" stroke-width="1" /><circle cx="-119.59" cy="1.71" fill="none" r="8.0" stroke="black" stroke-width="1" /><circle cx="-107.06" cy="-22.43" fill="none" r="7.0" stroke="black" stroke-width="1" /><circle cx="-114.83" cy="-12.01" fill="none" r="6.0" stroke="black" stroke-width="1" /><circle cx="125.66" cy="1.56" fill="none" r="9.0" stroke="black" stroke-width="1" /><circle cx="-129.83" cy="-11.86" fill="none" r="9.0" stroke="black" stroke-width="1" /><circle cx="-123.04" cy="16.31" fill="none" r="7.0" stroke="black" stroke-width="1" /><circle cx="-132.15" cy="30.67" fill="none" r="10.0" stroke="black" stroke-width="1" /><circle cx="-102.49" cy="-37.76" fill="none" r="9.0" stroke="black" stroke-width="1" /><circle cx="-119.65" cy="-32.31" fill="none" r="9.0" stroke="black" stroke-width="1" /><circle cx="-136.01" cy="-27.7" fill="none" r="8.0" stroke="black" stroke-width="1" /><circle cx="128.29" cy="-14.22" fill="none" r="7.0" stroke="black" stroke-width="1" /><circle cx="105.27" cy="46.32" fill="none" r="6.0" stroke="black" stroke-width="1" /><circle cx="116.72" cy="42.72" fill="none" r="6.0" stroke="black" stroke-width="1" /><circle cx="129.99" cy="35.72" fill="none" r="9.0" stroke="black" stroke-width="1" /><circle cx="123.77" cy="-28.52" fill="none" r="8.0" stroke="black" stroke-width="1" /><circle cx="118.71" cy="-40.5" fill="none" r="5.0" stroke="black" stroke-width="1" /><circle cx="110.34" cy="-45.97" fill="none" r="5.0" stroke="black" stroke-width="1" /><circle cx="-123.16" cy="48.54" fill="none" r="10.0" stroke="black" stroke-width="1" /><circle cx="-107.17" cy="48.04" fill="none" r="6.0" stroke="black" stroke-width="1" /><circle cx="-110.18" cy="63.75" fill="none" r="10.0" stroke="black" stroke-width="1" /><circle cx="121.68" cy="-54.18" fill="none" r="9.0" stroke="black" stroke-width="1" /><circle cx="107.76" cy="-55.63" fill="none" r="5.0" stroke="black" stroke-width="1" /><circle cx="-135.39" cy="4.2" fill="none" r="8.0" stroke="black" stroke-width="1" /><circle cx="-145.9" cy="17.56" fill="none" r="9.0" stroke="black" stroke-width="1" /><circle cx="111.77" cy="-68.0" fill="none" r="8.0" stroke="black" stroke-width="1" /><circle cx="136.79" cy="21.24" fill="none" r="7.0" stroke="black" stroke-width="1" /><circle cx="142.97" cy="6.48" fill="none" r="9.0" stroke="black" stroke-width="1" /><circle cx="-114.32" cy="-45.25" fill="none" r="5.0" stroke="black" stroke-width="1" /><circle cx="-128.86" cy="-48.93" fill="none" r="10.0" stroke="black" stroke-width="1" /><circle cx="-140.76" cy="-39.8" fill="none" r="5.0" stroke="black" stroke-width="1" /><circle cx="115.44" cy="58.67" fill="none" r="10.0" stroke="black" stroke-width="1" /><circle cx="133.68" cy="53.34" fill="none" r="9.0" stroke="black" stroke-width="1" /><circle cx="131.37" cy="-41.45" fill="none" r="7.0" stroke="black" stroke-width="1" /><circle cx="145.19" cy="-12.39" fill="none" r="10.0" stroke="black" stroke-width="1" /><circle cx="138.76" cy="-28.13" fill="none" r="7.0" stroke="black" stroke-width="1" /><circle cx="143.17" cy="-39.29" fill="none" r="5.0" stroke="black" stroke-width="1" /><circle cx="-127.13" cy="65.07" fill="none" r="7.0" stroke="black" stroke-width="1" /><circle cx="-120.48" cy="78.51" fill="none" r="8.0" stroke="black" stroke-width="1" /><circle cx="-106.5" cy="79.32" fill="none" r="6.0" stroke="black" stroke-width="1" /><circle cx="-148.6" cy="-14.83" fill="none" r="10.0" stroke="black" stroke-width="1" /><circle cx="-157.94" cy="2.86" fill="none" r="10.0" stroke="black" stroke-width="1" /><circle cx="126.71" cy="-69.37" fill="none" r="7.0" stroke="black" stroke-width="1" /><circle cx="119.0" cy="-83.39" fill="none" r="9.0" stroke="black" stroke-width="1" /><circle cx="-142.09" cy="46.86" fill="none" r="9.0" stroke="black" stroke-width="1" /><circle cx="-138.14" cy="60.29" fill="none" r="5.0" stroke="black" stroke-width="1" /><circle cx="-111.95" cy="94.36" fill="none" r="10.0" stroke="black" stroke-width="1" /><circle cx="140.62" cy="-55.71" fill="none" r="10.0" stroke="black" stroke-width="1" /><circle cx="141.81" cy="-74.67" fill="none" r="9.0" stroke="black" stroke-width="1" /><circle cx="147.09" cy="41.33" fill="none" r="9.0" stroke="black" stroke-width="1" /><circle cx="148.71" cy="26.42" fill="none" r="6.0" stroke="black" stroke-width="1" /><circle cx="-148.06" cy="32.4" fill="none" r="6.0" stroke="black" stroke-width="1" /><circle cx="-157.21" cy="41.63" fill="none" r="7.0" stroke="black" stroke-width="1" /><circle cx="152.55" cy="-45.04" fill="none" r="6.0" stroke="black" stroke-width="1" /><circle cx="-112.86" cy="-59.17" fill="none" r="9.0" stroke="black" stroke-width="1" /><circle cx="-126.11" cy="-63.68" fill="none" r="5.0" stroke="black" stroke-width="1" /><circle cx="-140.1" cy="-64.25" fill="none" r="9.0" stroke="black" stroke-width="1" /><circle cx="-147.21" cy="-49.92" fill="none" r="7.0" stroke="black" stroke-width="1" /><circle cx="157.41" cy="15.45" fill="none" r="8.0" stroke="black" stroke-width="1" /><circle cx="-147.95" cy="-32.85" fill="none" r="5.0" stroke="black" stroke-width="1" /><circle cx="-156.46" cy="-27.6" fill="none" r="5.0" stroke="black" stroke-width="1" /><circle cx="-119.53" cy="-73.71" fill="none" r="7.0" stroke="black" stroke-width="1" /><circle cx="-132.12" cy="-76.95" fill="none" r="6.0" stroke="black" stroke-width="1" /><circle cx="150.63" cy="-26.37" fill="none" r="5.0" stroke="black" stroke-width="1" /><circle cx="158.13" cy="-34.42" fill="none" r="6.0" stroke="black" stroke-width="1" /><circle cx="-140.33" cy="74.12" fill="none" r="9.0" stroke="black" stroke-width="1" /><circle cx="-131.67" cy="85.12" fill="none" r="5.0" stroke="black" stroke-width="1" /><circle cx="156.39" cy="2.49" fill="none" r="5.0" stroke="black" stroke-width="1" /><circle cx="165.02" cy="-9.78" fill="none" r="10.0" stroke="black" stroke-width="1" /><circle cx="-129.59" cy="97.95" fill="none" r="8.0" stroke="black" stroke-width="1" /><circle cx="128.36" cy="66.29" fill="none" r="5.0" stroke="black" stroke-width="1" /><circle cx="142.04" cy="69.28" fill="none" r="9.0" stroke="black" stroke-width="1" /><circle cx="149.32" cy="56.16" fill="none" r="6.0" stroke="black" stroke-width="1" /><circle cx="133.52" cy="-87.17" fill="none" r="6.0" stroke="black" stroke-width="1" /><circle cx="119.35" cy="78.28" fill="none" r="10.0" stroke="black" stroke-width="1" /><circle cx="136.52" cy="86.41" fill="none" r="9.0" stroke="black" stroke-width="1" /><circle cx="126.1" cy="-96.6" fill="none" r="6.0" stroke="black" stroke-width="1" /><circle cx="113.21" cy="-98.31" fill="none" r="7.0" stroke="black" stroke-width="1" /><circle cx="171.51" cy="-27.64" fill="none" r="9.0" stroke="black" stroke-width="1" /><circle cx="-158.79" cy="-40.39" fill="none" r="8.0" stroke="black" stroke-width="1" /><circle cx="-120.02" cy="108.17" fill="none" r="6.0" stroke="black" stroke-width="1" /><circle cx="-105.59" cy="112.26" fill="none" r="9.0" stroke="black" stroke-width="1" /><circle cx="-164.43" cy="21.78" fill="none" r="10.0" stroke="black" stroke-width="1" /><circle cx="-169.36" cy="37.0" fill="none" r="6.0" stroke="black" stroke-width="1" /><circle cx="-168.28" cy="-18.37" fill="none" r="10.0" stroke="black" stroke-width="1" /><circle cx="-174.11" cy="-2.4" fill="none" r="7.0" stroke="black" stroke-width="1" /><circle cx="-156.03" cy="56.58" fill="none" r="8.0" stroke="black" stroke-width="1" /><circle cx="-159.33" cy="74.28" fill="none" r="10.0" stroke="black" stroke-width="1" /><circle cx="122.9" cy="-112.28" fill="none" r="10.0" stroke="black" stroke-width="1" /><circle cx="106.01" cy="-110.32" fill="none" r="7.0" stroke="black" stroke-width="1" /><circle cx="162.57" cy="32.15" fill="none" r="9.0" stroke="black" stroke-width="1" /><circle cx="173.06" cy="18.77" fill="none" r="8.0" stroke="black" stroke-width="1" /><circle cx="155.62" cy="-55.6" fill="none" r="5.0" stroke="black" stroke-width="1" /><circle cx="154.41" cy="-66.53" fill="none" r="6.0" stroke="black" stroke-width="1" /><circle cx="159.48" cy="49.78" fill="none" r="6.0" stroke="black" stroke-width="1" /><circle cx="169.14" cy="44.51" fill="none" r="5.0" stroke="black" stroke-width="1" /><circle cx="-123.89" cy="-87.01" fill="none" r="7.0" stroke="black" stroke-width="1" /><circle cx="-112.45" cy="-83.4" fill="none" r="5.0" stroke="black" stroke-width="1" /><circle cx="-111.71" cy="-97.38" fill="none" r="9.0" stroke="black" stroke-width="1" /><circle cx="-129.07" cy="-102.15" fill="none" r="9.0" stroke="black" stroke-width="1" /><circle cx="-136.7" cy="-89.23" fill="none" r="6.0" stroke="black" stroke-width="1" /><circle cx="-142.69" cy="-80.0" fill="none" r="5.0" stroke="black" stroke-width="1" /><circle cx="-150.44" cy="-73.68" fill="none" r="5.0" stroke="black" stroke-width="1" /><circle cx="109.35" cy="-126.99" fill="none" r="10.0" stroke="black" stroke-width="1" /><circle cx="91.18" cy="-118.63" fill="none" r="10.0" stroke="black" stroke-width="1" /><circle cx="95.59" cy="-132.97" fill="none" r="5.0" stroke="black" stroke-width="1" /><circle cx="84.59" cy="-133.21" fill="none" r="6.0" stroke="black" stroke-width="1" /><circle cx="77.51" cy="-124.8" fill="none" r="5.0" stroke="black" stroke-width="1" /><circle cx="73.62" cy="-134.01" fill="none" r="5.0" stroke="black" stroke-width="1" /><circle cx="65.52" cy="-125.16" fill="none" r="7.0" stroke="black" stroke-width="1" /><circle cx="64.1" cy="-137.08" fill="none" r="5.0" stroke="black" stroke-width="1" /><circle cx="51.05" cy="-132.0" fill="none" r="9.0" stroke="black" stroke-width="1" /><circle cx="55.0" cy="-117.53" fill="none" r="6.0" stroke="black" stroke-width="1" /><circle cx="42.06" cy="-118.77" fill="none" r="7.0" stroke="black" stroke-width="1" /><circle cx="32.06" cy="-132.52" fill="none" r="10.0" stroke="black" stroke-width="1" /><circle cx="27.52" cy="-115.1" fill="none" r="8.0" stroke="black" stroke-width="1" /><circle cx="17.83" cy="-125.2" fill="none" r="6.0" stroke="black" stroke-width="1" /><circle cx="10.82" cy="-111.94" fill="none" r="9.0" stroke="black" stroke-width="1" /><circle cx="5.86" cy="-126.1" fill="none" r="6.0" stroke="black" stroke-width="1" /><circle cx="-7.44" cy="-117.2" fill="none" r="10.0" stroke="black" stroke-width="1" /><circle cx="-5.34" cy="-136.08" fill="none" r="9.0" stroke="black" stroke-width="1" /><circle cx="-20.88" cy="-129.18" fill="none" r="8.0" stroke="black" stroke-width="1" /><circle cx="-23.34" cy="-115.4" fill="none" r="6.0" stroke="black" stroke-width="1" /><circle cx="-35.41" cy="-122.49" fill="none" r="8.0" stroke="black" stroke-width="1" /><circle cx="-33.27" cy="-108.66" fill="none" r="6.0" stroke="black" stroke-width="1" /><circle cx="-43.61" cy="-112.4" fill="none" r="5.0" stroke="black" stroke-width="1" /><circle cx="-50.41" cy="-122.29" fill="none" r="7.0" stroke="black" stroke-width="1" /><circle cx="-55.97" cy="-108.36" fill="none" r="8.0" stroke="black" stroke-width="1" /><circle cx="-65.38" cy="-121.3" fill="none" r="8.0" stroke="black" stroke-width="1" /><circle cx="38.04" cy="-107.46" fill="none" r="5.0" stroke="black" stroke-width="1" /><circle cx="13.14" cy="-140.5" fill="none" r="10.0" stroke="black" stroke-width="1" /><circle cx="26.85" cy="-146.59" fill="none" r="5.0" stroke="black" stroke-width="1" /><circle cx="-32.43" cy="-135.14" fill="none" r="5.0" stroke="black" stroke-width="1" /><circle cx="-45.37" cy="-136.42" fill="none" r="8.0" stroke="black" stroke-width="1" /><circle cx="-20.76" cy="-147.18" fill="none" r="10.0" stroke="black" stroke-width="1" /><circle cx="-37.63" cy="-149.27" fill="none" r="7.0" stroke="black" stroke-width="1" /><circle cx="-57.57" cy="-131.92" fill="none" r="5.0" stroke="black" stroke-width="1" /><circle cx="-68.12" cy="-135.03" fill="none" r="6.0" stroke="black" stroke-width="1" /><circle cx="0.26" cy="-149.99" fill="none" r="6.0" stroke="black" stroke-width="1" /><circle cx="-8.82" cy="-157.83" fill="none" r="6.0" stroke="black" stroke-width="1" /><circle cx="42.96" cy="-148.08" fill="none" r="9.0" stroke="black" stroke-width="1" /><circle cx="30.08" cy="-159.18" fill="none" r="8.0" stroke="black" stroke-width="1" /><circle cx="-77.75" cy="-127.86" fill="none" r="6.0" stroke="black" stroke-width="1" /><circle cx="-79.61" cy="-113.98" fill="none" r="8.0" stroke="black" stroke-width="1" /><circle cx="-90.31" cy="-124.5" fill="none" r="7.0" stroke="black" stroke-width="1" /><circle cx="-95.18" cy="-110.31" fill="none" r="8.0" stroke="black" stroke-width="1" /><circle cx="17.86" cy="-154.74" fill="none" r="5.0" stroke="black" stroke-width="1" /><circle cx="7.18" cy="-162.16" fill="none" r="8.0" stroke="black" stroke-width="1" /><circle cx="67.53" cy="-109.29" fill="none" r="9.0" stroke="black" stroke-width="1" /><circle cx="53.79" cy="-106.6" fill="none" r="5.0" stroke="black" stroke-width="1" /><circle cx="57.38" cy="-144.49" fill="none" r="5.0" stroke="black" stroke-width="1" /><circle cx="55.5" cy="-154.31" fill="none" r="5.0" stroke="black" stroke-width="1" /><circle cx="-50.63" cy="-149.39" fill="none" r="6.0" stroke="black" stroke-width="1" /><circle cx="-61.91" cy="-145.3" fill="none" r="6.0" stroke="black" stroke-width="1" /><circle cx="-105.21" cy="-122.78" fill="none" r="8.0" stroke="black" stroke-width="1" /><circle cx="-119.92" cy="-116.47" fill="none" r="8.0" stroke="black" stroke-width="1" /><circle cx="-20.74" cy="-165.18" fill="none" r="8.0" stroke="black" stroke-width="1" /><circle cx="-34.34" cy="-161.85" fill="none" r="6.0" stroke="black" stroke-width="1" /><circle cx="-80.49" cy="-141.59" fill="none" r="8.0" stroke="black" stroke-width="1" /><circle cx="-92.37" cy="-136.32" fill="none" r="5.0" stroke="black" stroke-width="1" /><circle cx="-4.93" cy="-169.18" fill="none" r="6.0" stroke="black" stroke-width="1" /><circle cx="-71.91" cy="-155.1" fill="none" r="8.0" stroke="black" stroke-width="1" /><circle cx="71.52" cy="-143.79" fill="none" r="5.0" stroke="black" stroke-width="1" /><circle cx="68.33" cy="-156.39" fill="none" r="8.0" stroke="black" stroke-width="1" /><circle cx="83.29" cy="-146.14" fill="none" r="7.0" stroke="black" stroke-width="1" /><circle cx="-105.14" cy="-138.78" fill="none" r="8.0" stroke="black" stroke-width="1" /><circle cx="-47.34" cy="-161.97" fill="none" r="7.0" stroke="black" stroke-width="1" /><circle cx="-119.41" cy="122.16" fill="none" r="8.0" stroke="black" stroke-width="1" /><circle cx="-103.83" cy="131.18" fill="none" r="10.0" stroke="black" stroke-width="1" /><circle cx="-87.87" cy="119.12" fill="none" r="10.0" stroke="black" stroke-width="1" /><circle cx="-86.11" cy="138.04" fill="none" r="9.0" stroke="black" stroke-width="1" /><circle cx="-69.96" cy="128.03" fill="none" r="10.0" stroke="black" stroke-width="1" /><circle cx="-69.95" cy="148.03" fill="none" r="10.0" stroke="black" stroke-width="1" /><circle cx="-54.99" cy="138.02" fill="none" r="8.0" stroke="black" stroke-width="1" /><circle cx="-54.47" cy="124.03" fill="none" r="6.0" stroke="black" stroke-width="1" /><circle cx="-43.83" cy="129.57" fill="none" r="6.0" stroke="black" stroke-width="1" /><circle cx="-43.82" cy="116.57" fill="none" r="7.0" stroke="black" stroke-width="1" /><circle cx="-33.18" cy="124.04" fill="none" r="6.0" stroke="black" stroke-width="1" /><circle cx="-32.34" cy="113.07" fill="none" r="5.0" stroke="black" stroke-width="1" /><circle cx="-19.34" cy="118.26" fill="none" r="9.0" stroke="black" stroke-width="1" /><circle cx="-23.76" cy="135.71" fill="none" r="9.0" stroke="black" stroke-width="1" /><circle cx="-11.15" cy="129.62" fill="none" r="5.0" stroke="black" stroke-width="1" /><circle cx="-0.36" cy="119.2" fill="none" r="10.0" stroke="black" stroke-width="1" /><circle cx="-1.1" cy="136.18" fill="none" r="7.0" stroke="black" stroke-width="1" /><circle cx="9.48" cy="130.52" fill="none" r="5.0" stroke="black" stroke-width="1" /><circle cx="14.41" cy="121.82" fill="none" r="5.0" stroke="black" stroke-width="1" /><circle cx="23.32" cy="132.62" fill="none" r="9.0" stroke="black" stroke-width="1" /><circle cx="26.59" cy="114.92" fill="none" r="9.0" stroke="black" stroke-width="1" /><circle cx="36.76" cy="125.95" fill="none" r="6.0" stroke="black" stroke-width="1" /><circle cx="40.57" cy="115.63" fill="none" r="5.0" stroke="black" stroke-width="1" /><circle cx="47.35" cy="122.98" fill="none" r="5.0" stroke="black" stroke-width="1" /><circle cx="51.16" cy="112.66" fill="none" r="6.0" stroke="black" stroke-width="1" /><circle cx="42.54" cy="105.83" fill="none" r="5.0" stroke="black" stroke-width="1" /><circle cx="58.33" cy="122.28" fill="none" r="6.0" stroke="black" stroke-width="1" /><circle cx="64.89" cy="109.91" fill="none" r="8.0" stroke="black" stroke-width="1" /><circle cx="70.32" cy="122.81" fill="none" r="6.0" stroke="black" stroke-width="1" /><circle cx="81.62" cy="112.94" fill="none" r="9.0" stroke="black" stroke-width="1" /><circle cx="-37.47" cy="138.54" fill="none" r="5.0" stroke="black" stroke-width="1" /><circle cx="-11.19" cy="148.6" fill="none" r="9.0" stroke="black" stroke-width="1" /><circle cx="10.1" cy="140.5" fill="none" r="5.0" stroke="black" stroke-width="1" /><circle cx="19.73" cy="149.24" fill="none" r="8.0" stroke="black" stroke-width="1" /><circle cx="40.06" cy="141.61" fill="none" r="10.0" stroke="black" stroke-width="1" /><circle cx="58.56" cy="137.28" fill="none" r="9.0" stroke="black" stroke-width="1" /><circle cx="33.37" cy="159.39" fill="none" r="9.0" stroke="black" stroke-width="1" /><circle cx="-58.17" cy="109.49" fill="none" r="9.0" stroke="black" stroke-width="1" /><circle cx="-74.16" cy="109.06" fill="none" r="7.0" stroke="black" stroke-width="1" /><circle cx="77.56" cy="137.08" fill="none" r="10.0" stroke="black" stroke-width="1" /><circle cx="4.66" cy="159.08" fill="none" r="10.0" stroke="black" stroke-width="1" /><circle cx="-44.22" cy="148.46" fill="none" r="7.0" stroke="black" stroke-width="1" /><circle cx="-31.22" cy="148.72" fill="none" r="6.0" stroke="black" stroke-width="1" /><circle cx="-23.31" cy="159.04" fill="none" r="7.0" stroke="black" stroke-width="1" /><circle cx="92.03" cy="126.38" fill="none" r="8.0" stroke="black" stroke-width="1" /><circle cx="96.62" cy="113.15" fill="none" r="6.0" stroke="black" stroke-width="1" /><circle cx="52.27" cy="157.45" fill="none" r="10.0" stroke="black" stroke-width="1" /><circle cx="68.07" cy="151.19" fill="none" r="7.0" stroke="black" stroke-width="1" /><circle cx="-55.42" cy="156.86" fill="none" r="7.0" stroke="black" stroke-width="1" /><circle cx="104.0" cy="121.31" fill="none" r="5.0" stroke="black" stroke-width="1" /><circle cx="107.56" cy="111.96" fill="none" r="5.0" stroke="black" stroke-width="1" /><circle cx="-11.22" cy="169.52" fill="none" r="9.0" stroke="black" stroke-width="1" /><circle cx="19.53" cy="170.9" fill="none" r="9.0" stroke="black" stroke-width="1" /><circle cx="-37.02" cy="158.06" fill="none" r="5.0" stroke="black" stroke-width="1" /><circle cx="-32.37" cy="166.91" fill="none" r="5.0" stroke="black" stroke-width="1" /><circle cx="-155.09" cy="-63.71" fill="none" r="6.0" stroke="black" stroke-width="1" /><circle cx="-167.36" cy="-55.07" fill="none" r="9.0" stroke="black" stroke-width="1" /><circle cx="47.64" cy="-163.38" fill="none" r="7.0" stroke="black" stroke-width="1" /><circle cx="37.26" cy="-171.2" fill="none" r="6.0" stroke="black" stroke-width="1" /><circle cx="-45.41" cy="166.64" fill="none" r="7.0" stroke="black" stroke-width="1" /><circle cx="113.87" cy="119.72" fill="none" r="5.0" stroke="black" stroke-width="1" /><circle cx="118.32" cy="109.66" fill="none" r="6.0" stroke="black" stroke-width="1" /><circle cx="109.49" cy="100.12" fill="none" r="7.0" stroke="black" stroke-width="1" /><circle cx="123.27" cy="97.64" fill="none" r="7.0" stroke="black" stroke-width="1" /><circle cx="135.72" cy="101.39" fill="none" r="6.0" stroke="black" stroke-width="1" /><circle cx="20.06" cy="-171.65" fill="none" r="8.0" stroke="black" stroke-width="1" /><circle cx="95.61" cy="143.0" fill="none" r="9.0" stroke="black" stroke-width="1" /><circle cx="112.69" cy="134.67" fill="none" r="10.0" stroke="black" stroke-width="1" /><circle cx="175.1" cy="3.91" fill="none" r="7.0" stroke="black" stroke-width="1" /><circle cx="-145.29" cy="91.42" fill="none" r="9.0" stroke="black" stroke-width="1" /><circle cx="132.5" cy="117.06" fill="none" r="10.0" stroke="black" stroke-width="1" /><circle cx="83.29" cy="156.12" fill="none" r="9.0" stroke="black" stroke-width="1" /><circle cx="-58.36" cy="-157.22" fill="none" r="5.0" stroke="black" stroke-width="1" /><circle cx="-63.83" cy="-171.19" fill="none" r="10.0" stroke="black" stroke-width="1" /><circle cx="99.29" cy="-146.47" fill="none" r="9.0" stroke="black" stroke-width="1" /><circle cx="-177.69" cy="11.14" fill="none" r="7.0" stroke="black" stroke-width="1" /><circle cx="155.21" cy="82.98" fill="none" r="10.0" stroke="black" stroke-width="1" /><circle cx="155.98" cy="68.0" fill="none" r="5.0" stroke="black" stroke-width="1" /><circle cx="164.28" cy="60.78" fill="none" r="6.0" stroke="black" stroke-width="1" /><circle cx="-13.94" cy="-178.55" fill="none" r="7.0" stroke="black" stroke-width="1" /><circle cx="-159.13" cy="89.28" fill="none" r="5.0" stroke="black" stroke-width="1" /><circle cx="137.06" cy="-97.59" fill="none" r="5.0" stroke="black" stroke-width="1" /><circle cx="142.88" cy="-111.41" fill="none" r="10.0" stroke="black" stroke-width="1" /><circle cx="-175.23" cy="-36.05" fill="none" r="9.0" stroke="black" stroke-width="1" /><circle cx="164.54" cy="-44.56" fill="none" r="6.0" stroke="black" stroke-width="1" /><circle cx="167.51" cy="-57.22" fill="none" r="7.0" stroke="black" stroke-width="1" /><circle cx="3.39" cy="176.03" fill="none" r="7.0" stroke="black" stroke-width="1" /><circle cx="13.98" cy="188.02" fill="none" r="9.0" stroke="black" stroke-width="1" /><circle cx="145.34" cy="-89.25" fill="none" r="6.0" stroke="black" stroke-width="1" /><circle cx="158.28" cy="-98.65" fill="none" r="10.0" stroke="black" stroke-width="1" /><circle cx="157.14" cy="-79.24" fill="none" r="7.0" stroke="black" stroke-width="1" /><circle cx="168.19" cy="-86.09" fill="none" r="6.0" stroke="black" stroke-width="1" /><circle cx="85.05" cy="-163.05" fill="none" r="10.0" stroke="black" stroke-width="1" /><circle cx="-26.56" cy="180.74" fill="none" r="10.0" stroke="black" stroke-width="1" /><circle cx="129.67" cy="133.82" fill="none" r="7.0" stroke="black" stroke-width="1" /><circle cx="150.72" cy="101.44" fill="none" r="9.0" stroke="black" stroke-width="1" /><circle cx="-132.93" cy="113.6" fill="none" r="8.0" stroke="black" stroke-width="1" /><circle cx="-118.18" cy="-131.37" fill="none" r="7.0" stroke="black" stroke-width="1" /><circle cx="175.01" cy="-41.19" fill="none" r="5.0" stroke="black" stroke-width="1" /><circle cx="30.27" cy="-179.69" fill="none" r="5.0" stroke="black" stroke-width="1" /><circle cx="5.09" cy="-181.65" fill="none" r="10.0" stroke="black" stroke-width="1" /><circle cx="-44.54" cy="181.61" fill="none" r="8.0" stroke="black" stroke-width="1" /><circle cx="-146.57" cy="107.37" fill="none" r="7.0" stroke="black" stroke-width="1" /><circle cx="-167.48" cy="47.84" fill="none" r="5.0" stroke="black" stroke-width="1" /><circle cx="-168.98" cy="57.73" fill="none" r="5.0" stroke="black" stroke-width="1" /><circle cx="-99.02" cy="147.49" fill="none" r="7.0" stroke="black" stroke-width="1" /><circle cx="-87.24" cy="153.0" fill="none" r="6.0" stroke="black" stroke-width="1" /><circle cx="-78.24" cy="166.23" fill="none" r="10.0" stroke="black" stroke-width="1" /><circle cx="34.91" cy="175.32" fill="none" r="7.0" stroke="black" stroke-width="1" /><circle cx="47.66" cy="172.77" fill="none" r="6.0" stroke="black" stroke-width="1" /><circle cx="-89.81" cy="-156.99" fill="none" r="10.0" stroke="black" stroke-width="1" /><circle cx="-107.65" cy="-154.58" fill="none" r="8.0" stroke="black" stroke-width="1" /><circle cx="-146.96" cy="-100.17" fill="none" r="9.0" stroke="black" stroke-width="1" /><circle cx="-159.34" cy="-85.76" fill="none" r="10.0" stroke="black" stroke-width="1" /><circle cx="-60.84" cy="170.85" fill="none" r="8.0" stroke="black" stroke-width="1" /><circle cx="117.16" cy="-144.31" fill="none" r="9.0" stroke="black" stroke-width="1" /><circle cx="-180.06" cy="-49.19" fill="none" r="5.0" stroke="black" stroke-width="1" /><circle cx="59.39" cy="-165.83" fill="none" r="5.0" stroke="black" stroke-width="1" /><circle cx="-132.89" cy="-115.62" fill="none" r="5.0" stroke="black" stroke-width="1" /><circle cx="-147.47" cy="-119.16" fill="none" r="10.0" stroke="black" stroke-width="1" /><circle cx="166.46" cy="-70.18" fill="none" r="6.0" stroke="black" stroke-width="1" /><circle cx="184.02" cy="-9.38" fill="none" r="9.0" stroke="black" stroke-width="1" /><circle cx="184.84" cy="-23.36" fill="none" r="5.0" stroke="black" stroke-width="1" /><circle cx="-32.34" cy="-174.69" fill="none" r="7.0" stroke="black" stroke-width="1" /><circle cx="-47.26" cy="-180.48" fill="none" r="9.0" stroke="black" stroke-width="1" /><circle cx="180.18" cy="35.9" fill="none" r="9.0" stroke="black" stroke-width="1" /><circle cx="186.6" cy="22.34" fill="none" r="6.0" stroke="black" stroke-width="1" /><circle cx="68.01" cy="166.19" fill="none" r="8.0" stroke="black" stroke-width="1" /><circle cx="81.17" cy="170.97" fill="none" r="6.0" stroke="black" stroke-width="1" /><circle cx="-179.38" cy="23.02" fill="none" r="5.0" stroke="black" stroke-width="1" /><circle cx="-182.15" cy="34.69" fill="none" r="7.0" stroke="black" stroke-width="1" /><circle cx="59.36" cy="178.44" fill="none" r="7.0" stroke="black" stroke-width="1" /><circle cx="-172.5" cy="67.09" fill="none" r="5.0" stroke="black" stroke-width="1" /><circle cx="-58.96" cy="185.73" fill="none" r="7.0" stroke="black" stroke-width="1" /><circle cx="133.43" cy="-124.32" fill="none" r="6.0" stroke="black" stroke-width="1" /><circle cx="135.7" cy="-140.16" fill="none" r="10.0" stroke="black" stroke-width="1" /><circle cx="-24.98" cy="-185.41" fill="none" r="6.0" stroke="black" stroke-width="1" /><circle cx="179.38" cy="55.48" fill="none" r="10.0" stroke="black" stroke-width="1" /><circle cx="-128.86" cy="-125.9" fill="none" r="5.0" stroke="black" stroke-width="1" /><circle cx="-138.21" cy="-133.42" fill="none" r="7.0" stroke="black" stroke-width="1" /><circle cx="-121.11" cy="139.07" fill="none" r="9.0" stroke="black" stroke-width="1" /><circle cx="-112.63" cy="153.8" fill="none" r="8.0" stroke="black" stroke-width="1" /><circle cx="-172.71" cy="-72.26" fill="none" r="9.0" stroke="black" stroke-width="1" /><circle cx="104.99" cy="-164.59" fill="none" r="10.0" stroke="black" stroke-width="1" /><circle cx="-8.37" cy="-190.3" fill="none" r="6.0" stroke="black" stroke-width="1" /><circle cx="-183.44" cy="-23.49" fill="none" r="6.0" stroke="black" stroke-width="1" /><circle cx="-183.4" cy="-11.49" fill="none" r="6.0" stroke="black" stroke-width="1" /><circle cx="148.48" cy="116.27" fill="none" r="6.0" stroke="black" stroke-width="1" /><circle cx="-9.48" cy="186.43" fill="none" r="8.0" stroke="black" stroke-width="1" /><circle cx="1.23" cy="193.8" fill="none" r="5.0" stroke="black" stroke-width="1" /><circle cx="167.22" cy="72.41" fill="none" r="6.0" stroke="black" stroke-width="1" /><circle cx="53.14" cy="-179.47" fill="none" r="10.0" stroke="black" stroke-width="1" /><circle cx="38.62" cy="-188.31" fill="none" r="7.0" stroke="black" stroke-width="1" /><circle cx="181.69" cy="-52.34" fill="none" r="8.0" stroke="black" stroke-width="1" /><circle cx="73.14" cy="-179.11" fill="none" r="10.0" stroke="black" stroke-width="1" /><circle cx="-138.22" cy="130.81" fill="none" r="10.0" stroke="black" stroke-width="1" /><circle cx="-79.73" cy="-169.42" fill="none" r="6.0" stroke="black" stroke-width="1" /><circle cx="-159.18" cy="101.28" fill="none" r="7.0" stroke="black" stroke-width="1" /><circle cx="28.94" cy="186.87" fill="none" r="6.0" stroke="black" stroke-width="1" /><circle cx="101.65" cy="161.01" fill="none" r="10.0" stroke="black" stroke-width="1" /><circle cx="111.4" cy="149.61" fill="none" r="5.0" stroke="black" stroke-width="1" /><circle cx="21.42" cy="-189.22" fill="none" r="8.0" stroke="black" stroke-width="1" /><circle cx="-177.23" cy="45.64" fill="none" r="5.0" stroke="black" stroke-width="1" /><circle cx="187.01" cy="-36.18" fill="none" r="8.0" stroke="black" stroke-width="1" /><circle cx="186.4" cy="10.34" fill="none" r="6.0" stroke="black" stroke-width="1" /><circle cx="-117.74" cy="-144.88" fill="none" r="6.0" stroke="black" stroke-width="1" /><circle cx="-131.6" cy="-146.88" fill="none" r="8.0" stroke="black" stroke-width="1" /><circle cx="-187.75" cy="0.76" fill="none" r="7.0" stroke="black" stroke-width="1" /><circle cx="-191.33" cy="14.29" fill="none" r="7.0" stroke="black" stroke-width="1" /><circle cx="-179.89" cy="56.31" fill="none" r="6.0" stroke="black" stroke-width="1" /><circle cx="-149.95" cy="119.92" fill="none" r="6.0" stroke="black" stroke-width="1" /><circle cx="190.48" cy="45.39" fill="none" r="5.0" stroke="black" stroke-width="1" /><circle cx="179.18" cy="71.48" fill="none" r="6.0" stroke="black" stroke-width="1" /><circle cx="124.34" cy="148.39" fill="none" r="8.0" stroke="black" stroke-width="1" /><circle cx="138.81" cy="144.43" fill="none" r="7.0" stroke="black" stroke-width="1" /><circle cx="-175.76" cy="78.64" fill="none" r="7.0" stroke="black" stroke-width="1" /><circle cx="-169.11" cy="88.63" fill="none" r="5.0" stroke="black" stroke-width="1" /><circle cx="177.51" cy="-77.03" fill="none" r="7.0" stroke="black" stroke-width="1" /><circle cx="165.85" cy="96.24" fill="none" r="7.0" stroke="black" stroke-width="1" /><circle cx="180.39" cy="87.43" fill="none" r="10.0" stroke="black" stroke-width="1" /><circle cx="-97.99" cy="163.46" fill="none" r="9.0" stroke="black" stroke-width="1" /><circle cx="-90.98" cy="178.95" fill="none" r="8.0" stroke="black" stroke-width="1" /><circle cx="-188.45" cy="-61.62" fill="none" r="10.0" stroke="black" stroke-width="1" /><circle cx="147.89" cy="131.26" fill="none" r="9.0" stroke="black" stroke-width="1" /><circle cx="93.24" cy="175.79" fill="none" r="7.0" stroke="black" stroke-width="1" /><circle cx="118.58" cy="-158.24" fill="none" r="5.0" stroke="black" stroke-width="1" /><circle cx="177.06" cy="-64.49" fill="none" r="5.0" stroke="black" stroke-width="1" /><circle cx="188.44" cy="-68.29" fill="none" r="7.0" stroke="black" stroke-width="1" /><circle cx="-112.35" cy="167.8" fill="none" r="6.0" stroke="black" stroke-width="1" /><circle cx="-160.66" cy="-108.44" fill="none" r="7.0" stroke="black" stroke-width="1" /><circle cx="-167.32" cy="-98.46" fill="none" r="5.0" stroke="black" stroke-width="1" /><circle cx="-190.7" cy="26.27" fill="none" r="5.0" stroke="black" stroke-width="1" /><circle cx="-188.31" cy="68.72" fill="none" r="9.0" stroke="black" stroke-width="1" /><circle cx="42.89" cy="188.02" fill="none" r="8.0" stroke="black" stroke-width="1" /><circle cx="57.27" cy="192.28" fill="none" r="7.0" stroke="black" stroke-width="1" /><circle cx="73.71" cy="182.82" fill="none" r="8.0" stroke="black" stroke-width="1" /><circle cx="-93.37" cy="-175.65" fill="none" r="9.0" stroke="black" stroke-width="1" /><circle cx="-104.53" cy="-167.2" fill="none" r="5.0" stroke="black" stroke-width="1" /><circle cx="-176.91" cy="-89.68" fill="none" r="8.0" stroke="black" stroke-width="1" /><circle cx="158.55" cy="-114.65" fill="none" r="6.0" stroke="black" stroke-width="1" /><circle cx="151.9" cy="-125.82" fill="none" r="7.0" stroke="black" stroke-width="1" /><circle cx="150.5" cy="-137.74" fill="none" r="5.0" stroke="black" stroke-width="1" /><circle cx="-75.73" cy="188.51" fill="none" r="10.0" stroke="black" stroke-width="1" /><circle cx="162.28" cy="113.91" fill="none" r="8.0" stroke="black" stroke-width="1" /><circle cx="172.68" cy="106.11" fill="none" r="5.0" stroke="black" stroke-width="1" /><circle cx="-164.52" cy="116.36" fill="none" r="9.0" stroke="black" stroke-width="1" /><circle cx="-176.55" cy="101.65" fill="none" r="10.0" stroke="black" stroke-width="1" /><circle cx="93.87" cy="-178.74" fill="none" r="8.0" stroke="black" stroke-width="1" /><circle cx="85.02" cy="-188.26" fill="none" r="5.0" stroke="black" stroke-width="1" /><circle cx="-136.13" cy="150.7" fill="none" r="10.0" stroke="black" stroke-width="1" /><circle cx="-124.45" cy="163.06" fill="none" r="7.0" stroke="black" stroke-width="1" /><circle cx="133.47" cy="-160.04" fill="none" r="10.0" stroke="black" stroke-width="1" /><circle cx="193.95" cy="-19.24" fill="none" r="5.0" stroke="black" stroke-width="1" /><circle cx="175.2" cy="-97.04" fill="none" r="7.0" stroke="black" stroke-width="1" /><circle cx="173.45" cy="-112.94" fill="none" r="9.0" stroke="black" stroke-width="1" /><circle cx="118.6" cy="162.25" fill="none" r="7.0" stroke="black" stroke-width="1" /><circle cx="-122.65" cy="-160.14" fill="none" r="8.0" stroke="black" stroke-width="1" /><line stroke="black" stroke-width="1" x1="200.0" x2="-200.0" y1="200.0" y2="200.0" /><line stroke="black" stroke-width="1" x1="-200.0" x2="-200.0" y1="200.0" y2="-200.0" /><line stroke="black" stroke-width="1" x1="-200.0" x2="200.0" y1="-200.0" y2="-200.0" /><line stroke="black" stroke-width="1" x1="200.0" x2="200.0" y1="-200.0" y2="200.0" /><line stroke="black" stroke-width="1" x1="100.0" x2="-100.0" y1="100.0" y2="100.0" /><line stroke="black" stroke-width="1" x1="-100.0" x2="-100.0" y1="100.0" y2="50.0" /><line stroke="black" stroke-width="1" x1="-100.0" x2="100.0" y1="50.0" y2="50.0" /><line stroke="black" stroke-width="1" x1="100.0" x2="100.0" y1="50.0" y2="100.0" /><line stroke="black" stroke-width="1" x1="100.0" x2="-100.0" y1="-100.0" y2="-100.0" /><line stroke="black" stroke-width="1" x1="-100.0" x2="-100.0" y1="-100.0" y2="-50.0" /><line stroke="black" stroke-width="1" x1="-100.0" x2="100.0" y1="-50.0" y2="-50.0" /><line stroke="black" stroke-width="1" x1="100.0" x2="100.0" y1="-50.0" y2="-100.0" /></g></svg>