<?xml version="1.0" encoding="utf-8" ?>
<svg baseProfile="tiny" height="100%" version="1.2" width="100%" xmlns="http://www.w3.org/2000/svg" xmlns:ev="http://www.w3.org/2001/xml-events" xmlns:xlink="http://www.w3.org/1999/xlink"><defs /><g transform="translate(200.0,146.6)"><circle cx="0.0" cy="-0.0" fill="none" r="10.0" stroke="black" stroke-width="1" /><circle cx="20.0" cy="-0.0" fill="none" r="10.0" stroke="black" stroke-width="1" /><circle cx="10.0" cy="-17.32" fill="none" r="10.0" stroke="black" stroke-width="1" /><circle cx="-10.0" cy="-17.32" fill="none" r="10.0" stroke="black" stroke-width="1" /><circle cx="-20.0" cy="0.0" fill="none" r="10.0" stroke="black" stroke-width="1" /><circle cx="-10.0" cy="17.32" fill="none" r="10.0" stroke="black" stroke-width="1" /><circle cx="10.0" cy="17.32" fill="none" r="10.0" stroke="black" stroke-width="1" /><circle cx="30.0" cy="17.32" fill="none" r="10.0" stroke="black" stroke-width="1" /><circle cx="40.0" cy="-0.0" fill="none" r="10.0" stroke="black" stroke-width="1" /><circle cx="30.0" cy="-17.32" fill="none" r="10.0" stroke="black" stroke-width="1" /><circle cx="20.0" cy="-34.64" fill="none" r="10.0" stroke="black" stroke-width="1" /><circle cx="0.0" cy="-34.64" fill="none" r="10.0" stroke="black" stroke-width="1" /><circle cx="-20.0" cy="-34.64" fill="none" r="10.0" stroke="black" stroke-width="1" /><circle cx="-30.0" cy="-17.32" fill="none" r="10.0" stroke="black" stroke-width="1" /><circle cx="-40.0" cy="0.0" fill="none" r="10.0" stroke="black" stroke-width="1" /><circle cx="-30.0" cy="17.32" fill="none" r="10.0" stroke="black" stroke-width="1" /><circle cx="-20.0" cy="34.64" fill="none" r="10.0" stroke="black" stroke-width="1" /><circle cx="-0.0" cy="34.64" fill="none" r="10.0" stroke="black" stroke-width="1" /><circle cx="20.0" cy="34.64" fill="none" r="10.0" stroke="black" stroke-width="1" /><circle cx="40.0" cy="34.64" fill="none" r="10.0" stroke="black" stroke-width="1" /><circle cx="50.0" cy="17.32" fill="none" r="10.0" stroke="black" stroke-width="1" /><circle cx="60.0" cy="-0.0" fill="none" r="10.0" stroke="black" stroke-width="1" /><circle cx="50.0" cy="-17.32" fill="none" r="10.0" stroke="black" stroke-width="1" /><circle cx="40.0" cy="-34.64" fill="none" r="10.0" stroke="black" stroke-width="1" /><circle cx="30.0" cy="-51.96" fill="none" r="10.0" stroke="black" stroke-width="1" /><circle cx="10.0" cy="-51.96" fill="none" r="10.0" stroke="black" stroke-width="1" /><circle cx="-10.0" cy="-51.96" fill="none" r="10.0" stroke="black" stroke-width="1" /><circle cx="-30.0" cy="-51.96" fill="none" r="10.0" stroke="black" stroke-width="1" /><circle cx="-40.0" cy="-34.64" fill="none" r="10.0" stroke="black" stroke-width="1" /><circle cx="-50.0" cy="-17.32" fill="none" r="10.0" stroke="black" stroke-width="1" /><circle cx="-60.0" cy="0.0" fill="none" r="10.0" stroke="black" stroke-width="1" /><circle cx="-50.0" cy="17.32" fill="none" r="10.0" stroke="black" stroke-width="1" /><circle cx="-40.0" cy="34.64" fill="none" r="10.0" stroke="black" stroke-width="1" /><circle cx="-30.0" cy="51.96" fill="none" r="10.0" stroke="black" stroke-width="1" /><circle cx="-10.0" cy="51.96" fill="none" r="10.0" stroke="black" stroke-width="1" /><circle cx="10.0" cy="51.96" fill="none" r="10.0" stroke="black" stroke-width="1" /><circle cx="30.0" cy="51.96" fill="none" r="10.0" stroke="black" stroke-width="1" /><circle cx="70.0" cy="-17.32" fill="none" r="10.0" stroke="black" stroke-width="1" /><circle cx="20.0" cy="-69.28" fill="none" r="10.0" stroke="black" stroke-width="1" /><circle cx="-50.0" cy="-51.96" fill="none" r="10.0" stroke="black" stroke-width="1" /><circle cx="-70.0" cy="17.32" fill="none" r="10.0" stroke="black" stroke-width="1" /><circle cx="-20.0" cy="69.28" fill="none" r="10.0" stroke="black" stroke-width="1" /><circle cx="50.0" cy="51.96" fill="none" r="10.0" stroke="black" stroke-width="1" /><circle cx="60.0" cy="34.64" fill="none" r="10.0" stroke="black" stroke-width="1" /><circle cx="70.0" cy="17.32" fill="none" r="10.0" stroke="black" stroke-width="1" /><circle cx="80.0" cy="-0.0" fill="none" r="10.0" stroke="black" stroke-width="1" /><circle cx="60.0" cy="-34.64" fill="none" r="10.0" stroke="black" stroke-width="1" /><circle cx="50.0" cy="-51.96" fill="none" r="10.0" stroke="black" stroke-width="1" /><circle cx="40.0" cy="-69.28" fill="none" r="10.0" stroke="black" stroke-width="1" /><circle cx="0.0" cy="-69.28" fill="none" r="10.0" stroke="black" stroke-width="1" /><circle cx="-20.0" cy="-69.28" fill="none" r="10.0" stroke="black" stroke-width="1" /><circle cx="-40.0" cy="-69.28" fill="none" r="10.0" stroke="black" stroke-width="1" /><circle cx="-60.0" cy="-34.64" fill="none" r="10.0" stroke="black" stroke-width="1" /><circle cx="-70.0" cy="-17.32" fill="none" r="10.0" stroke="black" stroke-width="1" /><circle cx="-80.0" cy="0.0" fill="none" r="10.0" stroke="black" stroke-width="1" /><circle cx="-60.0" cy="34.64" fill="none" r="10.0" stroke="black" stroke-width="1" /><circle cx="-50.0" cy="51.96" fill="none" r="10.0" stroke="black" stroke-width="1" /><circle cx="-40.0" cy="69.28" fill="none" r="10.0" stroke="black" stroke-width="1" /><circle cx="-0.0" cy="69.28" fill="none" r="10.0" stroke="black" stroke-width="1" /><circle cx="20.0" cy="69.28" fill="none" r="10.0" stroke="black" stroke-width="1" /><circle cx="40.0" cy="69.28" fill="none" r="10.0" stroke="black" stroke-width="1" /><circle cx="90.0" cy="-17.32" fill="none" r="10.0" stroke="black" stroke-width="1" /><circle cx="30.0" cy="-86.6" fill="none" r="10.0" stroke="black" stroke-width="1" /><circle cx="-60.0" cy="-69.28" fill="none" r="10.0" stroke="black" stroke-width="1" /><circle cx="-90.0" cy="17.32" fill="none" r="10.0" stroke="black" stroke-width="1" /><circle cx="-30.0" cy="86.6" fill="none" r="10.0" stroke="black" stroke-width="1" /><circle cx="60.0" cy="69.28" fill="none" r="10.0" stroke="black" stroke-width="1" /><circle cx="70.0" cy="51.96" fill="none" r="10.0" stroke="black" stroke-width="1" /><circle cx="80.0" cy="34.64" fill="none" r="10.0" stroke="black" stroke-width="1" /><circle cx="90.0" cy="17.32" fill="none" r="10.0" stroke="black" stroke-width="1" /><circle cx="80.0" cy="-34.64" fill="none" r="10.0" stroke="black" stroke-width="1" /><circle cx="70.0" cy="-51.96" fill="none" r="10.0" stroke="black" stroke-width="1" /><circle cx="60.0" cy="-69.28" fill="none" r="10.0" stroke="black" stroke-width="1" /><circle cx="10.0" cy="-86.6" fill="none" r="10.0" stroke="black" stroke-width="1" /><circle cx="-10.0" cy="-86.6" fill="none" r="10.0" stroke="black" stroke-width="1" /><circle cx="-30.0" cy="-86.6" fill="none" r="10.0" stroke="black" stroke-width="1" /><circle cx="-70.0" cy="-51.96" fill="none" r="10.0" stroke="black" stroke-width="1" /><circle cx="-80.0" cy="-34.64" fill="none" r="10.0" stroke="black" stroke-width="1" /><circle cx="-90.0" cy="-17.32" fill="none" r="10.0" stroke="black" stroke-width="1" /><circle cx="-80.0" cy="34.64" fill="none" r="10.0" stroke="black" stroke-width="1" /><circle cx="-70.0" cy="51.96" fill="none" r="10.0" stroke="black" stroke-width="1" /><circle cx="-60.0" cy="69.28" fill="none" r="10.0" stroke="black" stroke-width="1" /><circle cx="-10.0" cy="86.6" fill="none" r="10.0" stroke="black" stroke-width="1" /><circle cx="10.0" cy="86.6" fill="none" r="10.0" stroke="black" stroke-width="1" /><circle cx="30.0" cy="86.6" fill="none" r="10.0" stroke="black" stroke-width="1" /><circle cx="100.0" cy="-34.64" fill="none" r="10.0" stroke="black" stroke-width="1" /><circle cx="-80.0" cy="-69.28" fill="none" r="10.0" stroke="black" stroke-width="1" /><circle cx="-100.0" cy="34.64" fill="none" r="10.0" stroke="black" stroke-width="1" /><circle cx="80.0" cy="69.28" fill="none" r="10.0" stroke="black" stroke-width="1" /><circle cx="100.0" cy="-0.0" fill="none" r="10.0" stroke="black" stroke-width="1" /><circle cx="50.0" cy="-86.6" fill="none" r="10.0" stroke="black" stroke-width="1" /><circle cx="-50.0" cy="-86.6" fill="none" r="10.0" stroke="black" stroke-width="1" /><circle cx="-100.0" cy="0.0" fill="none" r="10.0" stroke="black" stroke-width="1" /><circle cx="-50.0" cy="86.6" fill="none" r="10.0" stroke="black" stroke-width="1" /><circle cx="50.0" cy="86.6" fill="none" r="10.0" stroke="black" stroke-width="1" /><circle cx="110.0" cy="-17.32" fill="none" r="10.0" stroke="black" stroke-width="1" /><circle cx="-70.0" cy="-86.6" fill="none" r="10.0" stroke="black" stroke-width="1" /><circle cx="-110.0" cy="17.32" fill="none" r="10.0" stroke="black" stroke-width="1" /><circle cx="70.0" cy="86.6" fill="none" r="10.0" stroke="black" stroke-width="1" /><circle cx="90.0" cy="51.96" fill="none" r="10.0" stroke="black" stroke-width="1" /><circle cx="100.0" cy="34.64" fill="none" r="10.0" stroke="black" stroke-width="1" /><circle cx="110.0" cy="17.32" fill="none" r="10.0" stroke="black" stroke-width="1" /><circle cx="90.0" cy="-51.96" fill="none" r="10.0" stroke="black" stroke-width="1" /><circle cx="80.0" cy="-69.28" fill="none" r="10.0" stroke="black" stroke-width="1" /><circle cx="70.0" cy="-86.6" fill="none" r="10.0" stroke="black" stroke-width="1" /><circle cx="-90.0" cy="-51.96" fill="none" r="10.0" stroke="black" stroke-width="1" /><circle cx="-100.0" cy="-34.64" fill="none" r="10.0" stroke="black" stroke-width="1" /><circle cx="-110.0" cy="-17.32" fill="none" r="10.0" stroke="black" stroke-width="1" /><circle cx="-90.0" cy="51.96" fill="none" r="10.0" stroke="black" stroke-width="1" /><circle cx="-80.0" cy="69.28" fill="none" r="10.0" stroke="black" stroke-width="1" /><circle cx="-70.0" cy="86.6" fill="none" r="10.0" stroke="black" stroke-width="1" /><circle cx="120.0" cy="-34.64" fill="none" r="10.0" stroke="black" stroke-width="1" /><circle cx="-90.0" cy="-86.6" fill="none" r="10.0" stroke="black" stroke-width="1" /><circle cx="-120.0" cy="34.64" fill="none" r="10.0" stroke="black" stroke-width="1" /><circle cx="90.0" cy="86.6" fill="none" r="10.0" stroke="black" stroke-width="1" /><circle cx="120.0" cy="-0.0" fill="none" r="10.0" stroke="black" stroke-width="1" /><circle cx="-120.0" cy="0.0" fill="none" r="10.0" stroke="black" stroke-width="1" /><circle cx="130.0" cy="-17.32" fill="none" r="10.0" stroke="black" stroke-width="1" /><circle cx="-130.0" cy="17.32" fill="none" r="10.0" stroke="black" stroke-width="1" /><circle cx="100.0" cy="69.28" fill="none" r="10.0" stroke="black" stroke-width="1" /><circle cx="110.0" cy="51.96" fill="none" r="10.0" stroke="black" stroke-width="1" /><circle cx="120.0" cy="34.64" fill="none" r="10.0" stroke="black" stroke-width="1" /><circle cx="110.0" cy="-51.96" fill="none" r="10.0" stroke="black" stroke-width="1" /><circle cx="100.0" cy="-69.28" fill="none" r="10.0" stroke="black" stroke-width="1" /><circle cx="90.0" cy="-86.6" fill="none" r="10.0" stroke="black" stroke-width="1" /><circle cx="-100.0" cy="-69.28" fill="none" r="10.0" stroke="black" stroke-width="1" /><circle cx="-110.0" cy="-51.96" fill="none" r="10.0" stroke="black" stroke-width="1" /><circle cx="-120.0" cy="-34.64" fill="none" r="10.0" stroke="black" stroke-width="1" /><circle cx="-110.0" cy="51.96" fill="none" r="10.0" stroke="black" stroke-width="1" /><circle cx="-100.0" cy="69.28" fill="none" r="10.0" stroke="black" stroke-width="1" /><circle cx="-90.0" cy="86.6" fill="none" r="10.0" stroke="black" stroke-width="1" /><circle cx="130.0" cy="-51.96" fill="none" r="10.0" stroke="black" stroke-width="1" /><circle cx="-110.0" cy="-86.6" fill="none" r="10.0" stroke="black" stroke-width="1" /><circle cx="-130.0" cy="51.96" fill="none" r="10.0" stroke="black" stroke-width="1" /><circle cx="110.0" cy="86.6" fill="none" r="10.0" stroke="black" stroke-width="1" /><circle cx="130.0" cy="17.32" fill="none" r="10.0" stroke="black" stroke-width="1" /><circle cx="-130.0" cy="-17.32" fill="none" r="10.0" stroke="black" stroke-width="1" /><circle cx="140.0" cy="-34.64" fill="none" r="10.0" stroke="black" stroke-width="1" /><circle cx="-140.0" cy="34.64" fill="none" r="10.0" stroke="black" stroke-width="1" /><circle cx="140.0" cy="-0.0" fill="none" r="10.0" stroke="black" stroke-width="1" /><circle cx="-140.0" cy="0.0" fill="none" r="10.0" stroke="black" stroke-width="1" /><circle cx="120.0" cy="69.28" fill="none" r="10.0" stroke="black" stroke-width="1" /><circle cx="130.0" cy="51.96" fill="none" r="10.0" stroke="black" stroke-width="1" /><circle cx="140.0" cy="34.64" fill="none" r="10.0" stroke="black" stroke-width="1" /><circle cx="120.0" cy="-69.28" fill="none" r="10.0" stroke="black" stroke-width="1" /><circle cx="110.0" cy="-86.6" fill="none" r="10.0" stroke="black" stroke-width="1" /><circle cx="-120.0" cy="-69.28" fill="none" r="10.0" stroke="black" stroke-width="1" /><circle cx="-130.0" cy="-51.96" fill="none" r="10.0" stroke="black" stroke-width="1" /><circle cx="-140.0" cy="-34.64" fill="none" r="10.0" stroke="black" stroke-width="1" /><circle cx="-120.0" cy="69.28" fill="none" r="10.0" stroke="black" stroke-width="1" /><circle cx="-110.0" cy="86.6" fill="none" r="10.0" stroke="black" stroke-width="1" /><circle cx="130.0" cy="86.6" fill="none" r="10.0" stroke="black" stroke-width="1" /><circle cx="140.0" cy="69.28" fill="none" r="10.0" stroke="black" stroke-width="1" /><circle cx="140.0" cy="-69.28" fill="none" r="10.0" stroke="black" stroke-width="1" /><circle cx="130.0" cy="-86.6" fill="none" r="10.0" stroke="black" stroke-width="1" /><circle cx="-130.0" cy="-86.6" fill="none" r="10.0" stroke="black" stroke-width="1" /><circle cx="-140.0" cy="-69.28" fill="none" r="10.0" stroke="black" stroke-width="1" /><circle cx="-140.0" cy="69.28" fill="none" r="10.0" stroke="black" stroke-width="1" /><circle cx="-130.0" cy="86.6" fill="none" r="10.0" stroke="black" stroke-width="1" /><line stroke="black" stroke-width="1" x1="150.0" x2="-150.0" y1="96.6" y2="96.6" /><line stroke="black" stroke-width="1" x1="-150.0" x2="-150.0" y1="96.6" y2="-96.6" /><line stroke="black" stroke-width="1" x1="-150.0" x2="150.0" y1="-96.6" y2="-96.6" /><line stroke="black" stroke-width="1" x1="150.0" x2="150.0" y1="-96.6" y2="96.6" /></g></svg>